<svg xmlns="http://www.w3.org/2000/svg" width="900" height="520" viewBox="0 0 900 520" role="img" aria-labelledby="title description">
<title id="title">TelSeq Parallel v0.3 wall time versus requested threads</title>
<desc id="description">Wall time falls from the reused 55.14-minute sequential baseline with 1 requested thread to 1.47 minutes at 80 threads.</desc>
<style>
.text{fill:#24292f;font:14px -apple-system,BlinkMacSystemFont,Segoe UI,sans-serif}
.muted{fill:#57606a;font:13px -apple-system,BlinkMacSystemFont,Segoe UI,sans-serif}
.title{fill:#24292f;font:600 20px -apple-system,BlinkMacSystemFont,Segoe UI,sans-serif}
.grid{stroke:#d0d7de;stroke-width:1}.axis{stroke:#57606a;stroke-width:1.5}
.series{fill:none;stroke:#0969da;stroke-width:3}.point{fill:#0969da;stroke:#fff;stroke-width:2}
.best{fill:#1a7f37;stroke:#fff;stroke-width:3}.guide{stroke:#1a7f37;stroke-width:1.5;stroke-dasharray:6 5}
@media (prefers-color-scheme:dark){.text,.title{fill:#f0f6fc}.muted{fill:#8c959f}.grid{stroke:#30363d}.axis{stroke:#8c959f}.series{stroke:#58a6ff}.point{fill:#58a6ff;stroke:#0d1117}.best{fill:#3fb950;stroke:#0d1117}.guide{stroke:#3fb950}}
</style>
<text class="title" x="86" y="31">Real WGS v0.3 wall time by requested thread count</text>
<text class="muted" x="86" y="50">Reference-window scheduler · t1 is the unchanged sequential baseline · log₂ x-axis</text>
<line class="grid" x1="86" y1="442.0" x2="820" y2="442.0"/>
<text class="muted" x="74" y="447.0" text-anchor="end">0</text>
<line class="grid" x1="86" y1="378.0" x2="820" y2="378.0"/>
<text class="muted" x="74" y="383.0" text-anchor="end">10</text>
<line class="grid" x1="86" y1="314.0" x2="820" y2="314.0"/>
<text class="muted" x="74" y="319.0" text-anchor="end">20</text>
<line class="grid" x1="86" y1="250.0" x2="820" y2="250.0"/>
<text class="muted" x="74" y="255.0" text-anchor="end">30</text>
<line class="grid" x1="86" y1="186.0" x2="820" y2="186.0"/>
<text class="muted" x="74" y="191.0" text-anchor="end">40</text>
<line class="grid" x1="86" y1="122.0" x2="820" y2="122.0"/>
<text class="muted" x="74" y="127.0" text-anchor="end">50</text>
<line class="grid" x1="86" y1="58.0" x2="820" y2="58.0"/>
<text class="muted" x="74" y="63.0" text-anchor="end">60</text>
<line class="axis" x1="86" y1="58" x2="86" y2="442"/>
<line class="axis" x1="86" y1="442" x2="820" y2="442"/>
<line class="guide" x1="86" y1="432.6" x2="820" y2="432.6"/>
<path class="series" d="M 86.0 89.1 L 318.2 303.7 L 434.3 380.5 L 502.2 402.8 L 611.2 421.6 L 727.3 430.6 L 820.0 432.6"/>
<circle class="point" cx="86.0" cy="89.1" r="6"/>
<text class="text" x="86.0" y="114.1" text-anchor="middle">55.14</text>
<text class="muted" x="86.0" y="467" text-anchor="middle">1</text>
<circle class="point" cx="318.2" cy="303.7" r="6"/>
<text class="text" x="318.2" y="288.7" text-anchor="middle">21.61</text>
<text class="muted" x="318.2" y="467" text-anchor="middle">4</text>
<circle class="point" cx="434.3" cy="380.5" r="6"/>
<text class="text" x="434.3" y="365.5" text-anchor="middle">9.61</text>
<text class="muted" x="434.3" y="467" text-anchor="middle">8</text>
<circle class="point" cx="502.2" cy="402.8" r="6"/>
<text class="text" x="502.2" y="387.8" text-anchor="middle">6.13</text>
<text class="muted" x="502.2" y="467" text-anchor="middle">12</text>
<circle class="point" cx="611.2" cy="421.6" r="6"/>
<text class="text" x="611.2" y="406.6" text-anchor="middle">3.18</text>
<text class="muted" x="611.2" y="467" text-anchor="middle">23</text>
<circle class="point" cx="727.3" cy="430.6" r="6"/>
<text class="text" x="727.3" y="415.6" text-anchor="middle">1.78</text>
<text class="muted" x="727.3" y="467" text-anchor="middle">46</text>
<circle class="best" cx="820.0" cy="432.6" r="6"/>
<text class="text" x="820.0" y="417.6" text-anchor="middle">1.47</text>
<text class="muted" x="820.0" y="467" text-anchor="middle">80</text>
<text class="text" x="802.0" y="402.6" text-anchor="end">fastest observed</text>
<text class="text" x="453.0" y="500" text-anchor="middle">Requested threads</text>
<text class="text" transform="translate(24 250.0) rotate(-90)" text-anchor="middle">Wall time (minutes)</text>
</svg>
