<svg xmlns="http://www.w3.org/2000/svg" width="900" height="520" viewBox="0 0 900 520" role="img" aria-labelledby="title description">
<title id="title">TelSeq Parallel wall time versus requested threads</title>
<desc id="description">Wall time falls from 54.62 minutes with one thread to 38.15 minutes with four threads, then remains near 38.5 minutes through eighty threads.</desc>
<style>
.text{fill:#24292f;font:14px -apple-system,BlinkMacSystemFont,Segoe UI,sans-serif}
.muted{fill:#57606a;font:13px -apple-system,BlinkMacSystemFont,Segoe UI,sans-serif}
.title{fill:#24292f;font:600 20px -apple-system,BlinkMacSystemFont,Segoe UI,sans-serif}
.grid{stroke:#d0d7de;stroke-width:1}.axis{stroke:#57606a;stroke-width:1.5}
.series{fill:none;stroke:#0969da;stroke-width:3}.point{fill:#0969da;stroke:#fff;stroke-width:2}
.best{fill:#1a7f37;stroke:#fff;stroke-width:3}.guide{stroke:#1a7f37;stroke-width:1.5;stroke-dasharray:6 5}
@media (prefers-color-scheme:dark){.text,.title{fill:#f0f6fc}.muted{fill:#8c959f}.grid{stroke:#30363d}.axis{stroke:#8c959f}.series{stroke:#58a6ff}.point{fill:#58a6ff;stroke:#0d1117}.best{fill:#3fb950;stroke:#0d1117}.guide{stroke:#3fb950}}
</style>
<text class="title" x="86" y="31">Real WGS wall time by requested thread count</text>
<text class="muted" x="86" y="50">Lower is better · x-axis uses a log₂ scale</text>
<line class="grid" x1="86" y1="442.0" x2="820" y2="442.0"/>
<text class="muted" x="74" y="447.0" text-anchor="end">35</text>
<line class="grid" x1="86" y1="346.0" x2="820" y2="346.0"/>
<text class="muted" x="74" y="351.0" text-anchor="end">40</text>
<line class="grid" x1="86" y1="250.0" x2="820" y2="250.0"/>
<text class="muted" x="74" y="255.0" text-anchor="end">45</text>
<line class="grid" x1="86" y1="154.0" x2="820" y2="154.0"/>
<text class="muted" x="74" y="159.0" text-anchor="end">50</text>
<line class="grid" x1="86" y1="58.0" x2="820" y2="58.0"/>
<text class="muted" x="74" y="63.0" text-anchor="end">55</text>
<line class="axis" x1="86" y1="58" x2="86" y2="442"/>
<line class="axis" x1="86" y1="442" x2="820" y2="442"/>
<line class="guide" x1="86" y1="381.5" x2="820" y2="381.5"/>
<path class="series" d="M 86.0 65.3 L 318.2 381.5 L 434.3 375.8 L 502.2 374.4 L 603.8 373.8 L 719.9 373.9 L 820.0 376.0"/>
<circle class="point" cx="86.0" cy="65.3" r="6"/>
<text class="text" x="86.0" y="91.3" text-anchor="middle">54.62</text>
<text class="muted" x="86.0" y="467" text-anchor="middle">1</text>
<circle class="best" cx="318.2" cy="381.5" r="6"/>
<text class="text" x="318.2" y="366.5" text-anchor="middle">38.15</text>
<text class="muted" x="318.2" y="467" text-anchor="middle">4</text>
<circle class="point" cx="434.3" cy="375.8" r="6"/>
<text class="text" x="434.3" y="360.8" text-anchor="middle">38.45</text>
<text class="muted" x="434.3" y="467" text-anchor="middle">8</text>
<circle class="point" cx="502.2" cy="374.4" r="6"/>
<text class="text" x="502.2" y="359.4" text-anchor="middle">38.52</text>
<text class="muted" x="502.2" y="467" text-anchor="middle">12</text>
<circle class="point" cx="603.8" cy="373.8" r="6"/>
<text class="text" x="603.8" y="358.8" text-anchor="middle">38.55</text>
<text class="muted" x="603.8" y="467" text-anchor="middle">22</text>
<circle class="point" cx="719.9" cy="373.9" r="6"/>
<text class="text" x="719.9" y="358.9" text-anchor="middle">38.55</text>
<text class="muted" x="719.9" y="467" text-anchor="middle">44</text>
<circle class="point" cx="820.0" cy="376.0" r="6"/>
<text class="text" x="820.0" y="361.0" text-anchor="middle">38.44</text>
<text class="muted" x="820.0" y="467" text-anchor="middle">80</text>
<text class="text" x="336.2" y="410.5">fastest observed</text>
<text class="text" x="453.0" y="500" text-anchor="middle">Requested threads</text>
<text class="text" transform="translate(24 250.0) rotate(-90)" text-anchor="middle">Wall time (minutes)</text>
</svg>
